<svg class="icon" viewBox="0 0 1024 1024" version="1.1" xmlns="http://www.w3.org/2000/svg"
     width="200" height="200">
    <path d="M112.586667 751.306667h393.493333a5.333333 5.333333 0 0 0 5.333333-5.866667l-42.4-397.973333a5.333333 5.333333 0 0 0-5.333333-4.746667H154.933333a5.333333 5.333333 0 0 0-5.333333 4.746667l-42.346667 397.973333a5.333333 5.333333 0 0 0 5.333334 5.866667z m104.213333-329.173334a5.333333 5.333333 0 0 1 5.333333-4.746666h174.453334a5.333333 5.333333 0 0 1 5.333333 4.746666l26.666667 248.64a5.333333 5.333333 0 0 1-5.333334 5.866667h-12.213333a5.333333 5.333333 0 0 1-5.013333-3.68l-28.053334-85.813333a4.213333 4.213333 0 0 1 4-5.333334 4.266667 4.266667 0 0 0 4.266667-4.266666V512.266667a5.333333 5.333333 0 0 0-5.333333-5.333334h-117.333334a5.333333 5.333333 0 0 0-5.333333 5.333334v64a5.333333 5.333333 0 0 0 5.333333 5.333333h30.186667a5.333333 5.333333 0 0 1 5.013333 3.626667l27.626667 84.426666a5.333333 5.333333 0 0 1-5.333333 6.986667H195.626667a5.333333 5.333333 0 0 1-5.333334-5.866667zM686.666667 784.586667H173.013333a66.4 66.4 0 0 0 0 132.746666h513.653334a66.4 66.4 0 0 0 0-132.746666z m-470.346667 90.4a24 24 0 1 1 24-24 24.053333 24.053333 0 0 1-24 24z m142.346667 0a24 24 0 1 1 24-24 24 24 0 0 1-24 24z m142.346666 0a24 24 0 1 1 24-24 24 24 0 0 1-24 24z m142.346667 0a24 24 0 1 1 24-24 24 24 0 0 1-24 24zM917.333333 648.8s-150.826667-490.293333-161.6-524.8a5.333333 5.333333 0 0 0-2.24-2.933333 86.186667 86.186667 0 0 0-95.253333 0 5.333333 5.333333 0 0 0-1.92 2.24L506.666667 454.613333a4.96 4.96 0 0 0-0.48 2.773334l22.453333 210.88a5.333333 5.333333 0 0 0 10.133333 1.6l176.693334-390.506667a5.333333 5.333333 0 0 1 9.92 0.64l96.533333 313.493333a5.333333 5.333333 0 0 1-3.36 6.613334l-134.773333 46.666666a5.333333 5.333333 0 0 0-3.306667 6.56c4.213333 13.813333 16.32 53.333333 20.96 68.213334a5.333333 5.333333 0 0 0 2.826667 3.253333c213.333333 102.4 213.333333-75.68 213.333333-75.68v-0.32z"
          fill="#1296db"/>
</svg>