<svg width="40" height="40" viewBox="0 0 40 40" fill="none" xmlns="http://www.w3.org/2000/svg">
    <path d="M7.36547 29.2612H13.3488C14.9362 29.2612 16.2794 28.2788 16.7679 26.8052L17.989 22.9984C18.2332 22.3844 18.2332 21.6476 18.1111 21.0336L16.6458 15.0165C16.2794 13.2973 14.8141 12.1921 13.1046 12.1921H7.36547C5.28961 12.1921 3.70219 13.7885 3.70219 15.8761V25.7C3.70219 27.542 5.28961 29.2612 7.36547 29.2612Z"
          fill="#08599D"/>
    <path d="M6.60135 38H22.706C25.2368 38 27.3074 35.8526 27.3074 33.228C27.3074 30.6035 25.2368 28.4561 22.706 28.4561H6.60135C4.07061 28.4561 2.00001 30.6035 2.00001 33.228C2.00001 35.8526 4.07061 38 6.60135 38Z"
          fill="#08599D"/>
    <rect x="6.2179" y="31.6374" width="15.8171" height="3.1813" rx="1.59065" fill="#2D9CDB"/>
    <path d="M34.9622 32.2087C34.1074 32.5771 33.1305 32.6999 32.3979 32.6999C31.2989 32.6999 30.322 32.4543 29.8336 32.3315C29.7115 32.2087 29.6966 32.3155 29.4672 32.2087C28.8567 32.0859 28.3683 31.3491 28.4904 30.7351C28.6125 30.1211 29.3451 29.6299 29.9557 29.7527C30.0778 29.7527 30.1999 29.8755 30.5662 29.8755C31.421 30.1211 32.7642 30.4895 33.9853 29.8755C35.5727 29.1387 36.0611 27.1739 35.3285 25.7003C34.9622 24.9635 34.3516 24.4723 33.4969 24.2267C32.8863 24.1039 32.3979 23.3671 32.6421 22.7531C32.7642 22.1391 33.4969 21.6479 34.1074 21.8935C35.5727 22.2619 36.6717 23.2443 37.4043 24.5951C38.7475 27.2967 37.7707 30.7351 34.9622 32.2087Z"
          fill="#08599D"/>
    <path d="M10.4358 30.577L19.4719 30.3314L31.5431 11.6016C31.9095 11.1104 31.7873 10.3736 31.2989 9.88243C30.8105 9.51403 29.9557 9.51403 29.5894 10.128L18.2508 27.9982L16.0528 28.121L31.5431 6.93524C32.0316 6.44404 31.9095 5.70725 31.421 5.21605C30.9326 4.72485 30.1999 4.84765 29.7115 5.33885L20.4312 15.8996L16.7679 20.0683C16.2883 20.6141 15.9084 22.6026 15.5384 24.4802L14.5238 28.121C12.7797 30.1057 10.4358 30.577 10.4358 30.577Z"
          fill="#08599D"/>
    <path d="M31.1712 32.532C31.6551 32.5986 32.1722 32.4219 32.3594 31.9519L36.4815 25.2064C36.8062 24.6313 36.6636 23.868 36.0917 23.5415C35.5199 23.2149 34.7609 23.3584 34.4362 23.9334C34.4362 23.9334 33.7252 26.3811 32.9203 27.6983C32.1154 29.0154 30.3141 30.6789 30.3141 30.6789C29.9894 31.2539 30.132 32.0172 30.7038 32.3438C30.9292 32.4988 31.0502 32.5154 31.1712 32.532Z"
          fill="#08599D"/>
    <path d="M32.1481 31.3344C32.632 31.401 33.1354 31.3245 33.2953 31.055L37.0151 27.267C37.3057 26.9426 37.1221 26.4801 36.5367 26.2538C35.9512 26.0275 35.2059 26.0707 34.9152 26.3951L31.1955 30.1831C30.9048 30.5075 31.0884 30.97 31.6739 31.1963C31.9061 31.3012 32.0271 31.3178 32.1481 31.3344Z"
          fill="#08599D"/>
    <path d="M33.7279 24.1974C33.8517 24.1974 34.0537 24.0991 34.1775 23.9612C34.7965 23.6855 35.1678 22.9961 34.9203 22.1689L34.3013 20.1008C34.0537 19.4114 33.4348 18.9978 32.6921 19.2735C32.0731 19.5493 31.7018 20.2386 31.9494 21.0659L32.5683 23.134C32.8159 23.6855 33.2327 24.1974 33.7279 24.1974Z"
          fill="#08599D"/>
    <path d="M33.0084 21.7707C34.4737 21.7707 35.6948 20.6655 35.8169 19.1919L36.5496 5.80678C36.5496 4.82439 36.3053 3.96479 35.6948 3.22799C35.0843 2.4912 34.2295 2.1228 33.2526 2H33.0084C31.0546 2 29.4672 3.59639 29.4672 5.56119V5.80678L30.1999 19.0691C30.322 20.5427 31.5431 21.7707 33.0084 21.7707V21.7707ZM33.3747 18.9463C33.3747 19.3147 32.7642 19.3147 32.7642 18.9463L31.9094 5.68398C31.9094 5.06999 32.3978 4.57879 33.0084 4.57879C33.6189 4.57879 34.1074 5.19279 34.1074 5.68398L33.3747 18.9463V18.9463Z"
          fill="#2D9CDB"/>
    <path d="M34.2296 6.42077C34.2296 6.74646 34.1009 7.0588 33.8719 7.2891C33.6429 7.51939 33.3323 7.64877 33.0085 7.64877C32.6846 7.64877 32.374 7.51939 32.145 7.2891C31.916 7.0588 31.7874 6.74646 31.7874 6.42077C31.7874 6.09509 31.916 5.78274 32.145 5.55245C32.374 5.32216 32.6846 5.19278 33.0085 5.19278C33.3323 5.19278 33.6429 5.32216 33.8719 5.55245C34.1009 5.78274 34.2296 6.09509 34.2296 6.42077V6.42077Z"
          fill="#08599D"/>
    <path d="M9.80768 25.5773H11.3951C12.372 25.5773 13.2267 24.9633 13.7152 23.9809L14.4478 22.1389C14.692 21.6477 14.692 21.0337 14.5699 20.5425L13.7152 17.4725C13.471 16.3673 12.4941 15.6305 11.3951 15.6305H9.80768C8.46448 15.6305 7.3655 16.7357 7.3655 18.0865V22.9985C7.3655 24.4721 8.46448 25.5773 9.80768 25.5773Z"
          fill="white" fill-opacity="0.8"/>
</svg>
