<svg t="1657621023421" class="icon" viewBox="0 0 1024 1024" version="1.1" xmlns="http://www.w3.org/2000/svg" p-id="1584"
     width="16" height="16">
    <path d="M928 538.656h-128v-177.344l86.08-82.176a32 32 0 1 0-44.192-46.304L750.624 320H273.376L182.08 232.864a31.968 31.968 0 1 0-44.16 46.272L224 361.344v177.344H96a32 32 0 0 0 0 64h128V640c0 52.96 14.304 102.592 39.232 145.216L137.92 904.864a32 32 0 1 0 44.192 46.304l119.712-114.272a287.104 287.104 0 0 0 178.208 89.344V544a32 32 0 0 1 64 0v382.24a287.424 287.424 0 0 0 178.208-89.344l119.712 114.272a32.032 32.032 0 0 0 44.192-46.304l-125.344-119.648A287.04 287.04 0 0 0 800 640v-37.344h128a32 32 0 0 0 0-64z"
          p-id="1585" fill="#1296db"></path>
    <path d="M672 240a160 160 0 0 0-320 0v21.344h320V240z" p-id="1586" fill="#1296db"></path>
</svg>