<svg width="16" height="16" viewBox="0 0 16 16" fill="none" xmlns="http://www.w3.org/2000/svg">
<path d="M11.8611 1.82161L11.3547 1.57643C10.9738 1.39255 10.5155 1.55162 10.3317 1.93398L8.64314 5.42776L8.54245 5.37814C7.60698 4.92719 6.48325 5.3183 6.03229 6.25377L5.88636 6.55587L11.362 9.20028L11.5079 8.89819C11.9589 7.96272 11.5678 6.83899 10.6323 6.38804L10.5316 6.33988L12.2186 2.8461C12.4025 2.46374 12.2435 2.00549 11.8611 1.82161ZM11.127 9.68334L5.6441 7.03601C5.3099 7.47382 4.87792 7.9671 4.32919 8.45745C3.49004 9.20758 2.65818 9.70231 2 10.0248C2.19118 10.629 2.59543 10.9194 2.88001 11.2259C2.98509 11.3397 4.60647 9.58702 4.72322 9.69939C4.83997 9.81176 3.45355 11.7878 3.58052 11.8972C3.9585 12.2212 4.38318 12.5306 4.84581 12.821C4.94067 12.8809 6.96339 10.1212 7.05387 10.1708C7.23483 10.27 5.77106 13.3435 5.96224 13.4354C6.15196 13.5274 6.34314 13.6135 6.53287 13.6937C7.19105 13.971 7.84486 14.1753 8.47094 14.3096C8.66212 14.3505 9.66764 10.8888 9.85152 10.9165C10.0369 10.9443 9.40203 14.4614 9.57861 14.476C10.1113 14.5198 10.6089 14.5037 11.0511 14.4278C10.8979 13.6339 10.7855 12.6094 10.8687 11.4244C10.9154 10.775 11.0132 10.1912 11.127 9.68334Z"
      fill="#E46C5A"/>
</svg>
