<svg width="13" height="13" viewBox="0 0 13 13" fill="none" xmlns="http://www.w3.org/2000/svg">
    <path fill-rule="evenodd" clip-rule="evenodd"
          d="M7.3125 13H1.625C0.731249 13 0 12.2688 0 11.375C0 10.4813 0.731249 9.75 1.625 9.75H7.3125C8.20625 9.75 8.9375 10.4813 8.9375 11.375C8.9375 12.2688 8.20625 13 7.3125 13ZM2.03125 10.9688C1.80688 10.9688 1.625 11.1506 1.625 11.375C1.625 11.5994 1.80688 11.7812 2.03125 11.7812H6.90625C7.13062 11.7812 7.3125 11.5994 7.3125 11.375C7.3125 11.1506 7.13062 10.9688 6.90625 10.9688H2.03125Z"
          fill="#AEAFB1"/>
    <path d="M11.903 10.9087C11.5943 11.0418 11.2416 11.0861 10.977 11.0861C10.5802 11.0861 10.2274 10.9974 10.051 10.9531C10.0069 10.9087 10.0015 10.9473 9.91873 10.9087C9.69825 10.8644 9.52187 10.5983 9.56597 10.3766C9.61006 10.1549 9.87463 9.9775 10.0951 10.0218C10.1392 10.0218 10.1833 10.0662 10.3156 10.0662C10.6242 10.1549 11.1093 10.2879 11.5502 10.0662C12.1235 9.80013 12.2999 9.09062 12.0353 8.55849C11.903 8.29242 11.6825 8.11504 11.3739 8.02636C11.1534 7.98201 10.977 7.71595 11.0652 7.49422C11.1093 7.2725 11.3739 7.09513 11.5943 7.18382C12.1235 7.31685 12.5203 7.6716 12.7849 8.15939C13.2699 9.13496 12.9172 10.3766 11.903 10.9087Z"
          fill="#AEAFB1"/>
    <path d="M3.04626 10.3195L6.30928 10.2308L10.6684 3.46725C10.8006 3.28988 10.7565 3.02381 10.5802 2.84643C10.4038 2.7134 10.0951 2.7134 9.96283 2.93512L5.54005 10.0454H4.72727L10.6684 1.78217C10.8447 1.60479 10.8006 1.33873 10.6243 1.16135C10.4479 0.983972 10.1833 1.02832 10.0069 1.20569C8.44891 2.97869 6.61358 5.44923 5.05556 7.22222C4.88238 7.4193 4.82365 7.93996 4.76349 8.43323L4.52247 9.43257C3.89266 10.1493 3.04626 10.3195 3.04626 10.3195Z"
          fill="#AEAFB1"/>
    <path d="M11.4573 8.01573C11.502 8.01573 11.575 7.98025 11.6197 7.93046C11.8432 7.83089 11.9773 7.58195 11.8879 7.28322L11.6644 6.5364C11.575 6.28746 11.3515 6.1381 11.0833 6.23767C10.8597 6.33725 10.7256 6.58619 10.815 6.88492L11.0386 7.63174C11.128 7.83089 11.2785 8.01573 11.4573 8.01573Z"
          fill="#AEAFB1"/>
    <path d="M11.1975 7.13943C11.7266 7.13943 12.1676 6.74033 12.2117 6.2082L12.4762 1.37467C12.4762 1.01992 12.388 0.709508 12.1676 0.443443C11.9471 0.177377 11.6384 0.0443443 11.2857 0H11.1975C10.492 0 9.91872 0.576475 9.91872 1.28598V1.37467L10.1833 6.16385C10.2274 6.69598 10.6683 7.13943 11.1975 7.13943V7.13943ZM11.3298 6.11951C11.3298 6.25254 11.1093 6.25254 11.1093 6.11951L10.8006 1.33033C10.8006 1.10861 10.977 0.931229 11.1975 0.931229C11.418 0.931229 11.5943 1.15295 11.5943 1.33033L11.3298 6.11951V6.11951Z"
          fill="#AEAFB1"/>
    <path d="M11.6385 1.5964C11.6385 1.714 11.592 1.8268 11.5093 1.90996C11.4266 1.99312 11.3144 2.03984 11.1975 2.03984C11.0806 2.03984 10.9684 1.99312 10.8857 1.90996C10.803 1.8268 10.7566 1.714 10.7566 1.5964C10.7566 1.47879 10.803 1.366 10.8857 1.28284C10.9684 1.19967 11.0806 1.15295 11.1975 1.15295C11.3144 1.15295 11.4266 1.19967 11.5093 1.28284C11.592 1.366 11.6385 1.47879 11.6385 1.5964Z"
          fill="#AEAFB1"/>
    <path fill-rule="evenodd" clip-rule="evenodd"
          d="M4.09819 9.84433H1.93753C1.18792 9.84433 0.614681 9.22351 0.614681 8.55835V5.01081C0.614681 4.25696 1.18792 3.68048 1.93753 3.68048H4.01C4.62733 3.68048 5.15647 4.07958 5.28875 4.7004L5.81789 6.87327C5.86199 7.09499 5.86199 7.36105 5.7738 7.58278L5.33285 8.95745C5.15647 9.48958 4.67142 9.84433 4.09819 9.84433ZM3.4055 8.53124H2.76811C2.22877 8.53124 1.7875 8.12499 1.7875 7.58333V5.77777C1.7875 5.28124 2.22877 4.87499 2.76811 4.87499H3.4055C3.84678 4.87499 4.23902 5.14583 4.33708 5.55208L4.6803 6.68055C4.72933 6.86111 4.72933 7.0868 4.63127 7.26736L4.33708 7.94444C4.14096 8.30555 3.79775 8.53124 3.4055 8.53124Z"
          fill="#AEAFB1"/>
</svg>
