<svg width="16" height="16" viewBox="0 0 16 16" fill="none" xmlns="http://www.w3.org/2000/svg">
    <path d="M9.00725 2L3 8.00025L4.85008 9.85033L12.6924 2.006H9.01375L9.00725 2ZM9.01425 7.53623L5.77861 10.7649L7.39618 12.3824L9.01375 14H12.7004L9.47027 10.7659L12.7004 7.53573L9.01425 7.53623Z"
          fill="#48D4FF"/>
    <path d="M12.7004 14H9.01375L7.39618 12.3824L9.47027 10.7659L12.7004 14Z" fill="#48D4FF"/>
    <path d="M12.7004 14H9.01375L7.39618 12.3824L9.47027 10.7659L12.7004 14Z" fill="#08599D"/>
    <path fill-rule="evenodd" clip-rule="evenodd"
          d="M12.8284 12.3941L13.9598 13.5255L14.5255 12.9598L13.3941 11.8284L14.5255 10.6971L13.9598 10.1314L12.8284 11.2627L11.6971 10.1314L11.1314 10.6971L12.2627 11.8284L11.1314 12.9598L11.6971 13.5255L12.8284 12.3941Z"
          fill="#D81E06"/>
</svg>
