<svg width="16" height="16" viewBox="0 0 16 16" fill="none" xmlns="http://www.w3.org/2000/svg">
    <path d="M14.4733 3.70667C13.986 2.82934 13.1133 2.56667 12.498 2.55467C11.7427 2.53934 11.1213 2.958 11.2393 3.23267C11.264 3.29134 11.406 3.59934 11.4927 3.726C11.6193 3.91 11.844 3.76934 11.9233 3.72734C12.1587 3.602 12.41 3.56067 12.6967 3.59467C12.9693 3.626 13.3327 3.79467 13.576 4.262C14.1487 5.36334 12.38 7.62867 10.1667 6.06001C7.95333 4.49067 5.80133 5.01067 4.82667 5.32667C3.852 5.64334 3.40333 5.96134 3.78933 6.69601C4.31267 7.69601 4.13867 7.38934 4.646 8.21601C5.45267 9.52934 7.216 7.61134 7.216 7.61134C5.90267 9.54867 4.776 9.08067 4.34333 8.40334C3.954 7.79334 3.65133 7.08934 3.65133 7.08934C0.322667 8.26334 1.22333 13.446 1.22333 13.446H2.87667C3.298 11.5373 4.80467 11.608 5.06333 13.446H6.324C7.44 9.71934 10.2673 13.446 10.2673 13.446H11.9113C11.4513 10.904 12.8367 10.106 13.7093 8.61534C14.5827 7.12534 15.4093 5.302 14.4733 3.706V3.70667ZM10.232 8.61401C9.36266 8.33001 9.674 7.46534 9.674 7.46534C9.674 7.46534 10.4333 7.71067 11.4607 8.04534C11.4007 8.31401 10.89 8.82867 10.232 8.61401Z"
          fill="#0097A7"/>
    <path fill-rule="evenodd" clip-rule="evenodd"
          d="M11.8284 12.3941L12.9598 13.5255L13.5255 12.9598L12.3941 11.8284L13.5255 10.6971L12.9598 10.1314L11.8284 11.2627L10.6971 10.1314L10.1314 10.6971L11.2627 11.8284L10.1314 12.9598L10.6971 13.5255L11.8284 12.3941Z"
          fill="#D81E06"/>
</svg>
