<svg width="16" height="16" viewBox="0 0 16 16" fill="none" xmlns="http://www.w3.org/2000/svg">
    <path d="M7.95529 14C6.49308 13.9969 5.08212 13.4684 3.98651 12.5134C2.89089 11.5585 2.1857 10.2425 2.00292 8.81178C1.99676 8.76311 2.00037 8.71373 2.01355 8.66644C2.02674 8.61915 2.04924 8.57488 2.07977 8.53617C2.11031 8.49745 2.14827 8.46505 2.1915 8.44081C2.23473 8.41656 2.28238 8.40095 2.33173 8.39487C2.38108 8.38879 2.43116 8.39235 2.47911 8.40535C2.52707 8.41836 2.57195 8.44055 2.61121 8.47066C2.65046 8.50077 2.68332 8.53821 2.70791 8.58084C2.73249 8.62348 2.74832 8.67047 2.75449 8.71913C2.93255 10.0816 3.65128 11.3188 4.75305 12.1595C5.85482 13.0001 7.24968 13.3754 8.6317 13.2032C8.68082 13.197 8.73071 13.2004 8.77849 13.2133C8.82627 13.2261 8.871 13.2482 8.91012 13.2781C8.94923 13.3081 8.98195 13.3454 9.0064 13.3879C9.03085 13.4303 9.04654 13.4772 9.05257 13.5256C9.05942 13.5744 9.05637 13.624 9.04358 13.6715C9.0308 13.7191 9.00854 13.7636 8.97811 13.8026C8.94768 13.8416 8.90968 13.8742 8.86634 13.8985C8.82299 13.9229 8.77516 13.9385 8.72565 13.9444C8.47035 13.9794 8.21303 13.9979 7.95529 14ZM11.5215 12.677C11.4653 12.6772 11.4098 12.665 11.3591 12.6412C11.3084 12.6175 11.2637 12.5829 11.2283 12.5399C11.1971 12.502 11.1738 12.4584 11.1598 12.4115C11.1457 12.3647 11.1411 12.3156 11.1464 12.2671C11.1516 12.2185 11.1665 12.1715 11.1903 12.1286C11.214 12.0857 11.2461 12.0479 11.2847 12.0174C12.3719 11.1553 13.0673 9.90266 13.2181 8.53499C13.3689 7.16733 12.9627 5.79658 12.0889 4.7242C12.0579 4.68607 12.0348 4.64226 12.0211 4.5953C12.0073 4.54835 12.0031 4.49917 12.0087 4.4506C12.0143 4.40203 12.0295 4.35503 12.0536 4.31231C12.0777 4.26959 12.1101 4.23199 12.149 4.20168C12.2269 4.14108 12.3259 4.11331 12.4244 4.12442C12.523 4.13552 12.6131 4.18461 12.6751 4.26097C13.6734 5.48671 14.1373 7.05328 13.9646 8.61621C13.792 10.1791 12.997 11.6105 11.7544 12.5955C11.6883 12.6478 11.6062 12.6765 11.5215 12.677ZM2.57411 6.69202C2.51567 6.69162 2.45812 6.67777 2.40605 6.65159C2.35398 6.62541 2.30882 6.58761 2.27417 6.5412C2.23951 6.49478 2.2163 6.44104 2.2064 6.38423C2.1965 6.32743 2.20017 6.26913 2.21712 6.21396C2.44608 5.46688 2.82234 4.77172 3.32433 4.16836C3.82632 3.565 4.44415 3.0653 5.1424 2.69794C5.84064 2.33057 6.60556 2.10276 7.39328 2.02758C8.18099 1.95239 8.97601 2.03131 9.73274 2.2598C9.82232 2.29276 9.89579 2.35816 9.93819 2.44267C9.98059 2.52719 9.98873 2.62446 9.96095 2.71469C9.93316 2.80491 9.87155 2.8813 9.78866 2.92829C9.70577 2.97528 9.60783 2.98935 9.51479 2.96762C8.85352 2.76996 8.15925 2.70269 7.47162 2.76967C6.78399 2.83665 6.11648 3.03656 5.5072 3.35798C4.89792 3.6794 4.35882 4.11603 3.92068 4.64295C3.48253 5.16986 3.15394 5.77674 2.95365 6.4289C2.92937 6.50832 2.87878 6.57742 2.80997 6.62512C2.74116 6.67282 2.65811 6.69638 2.57411 6.69202Z"
          fill="#F0BE46"/>
    <path fill-rule="evenodd" clip-rule="evenodd"
          d="M5.04743 10.9123C4.27223 10.1478 3.83673 9.11098 3.83673 8.02984C3.83673 7.49451 3.94365 6.96443 4.15138 6.46985C4.35911 5.97527 4.66359 5.52588 5.04743 5.14735C5.43127 4.76882 5.88695 4.46855 6.38846 4.26369C6.88997 4.05883 7.42749 3.95338 7.97032 3.95338C8.51315 3.95338 9.05066 4.05883 9.55217 4.26369C10.0537 4.46855 10.5094 4.76882 10.8932 5.14735C11.277 5.52588 11.5815 5.97527 11.7893 6.46985C11.997 6.96443 12.1039 7.49451 12.1039 8.02984C12.1039 9.11098 11.6684 10.1478 10.8932 10.9123C10.118 11.6768 9.06661 12.1063 7.97032 12.1063C6.87402 12.1063 5.82263 11.6768 5.04743 10.9123ZM8.02164 10.0319C8.05255 10.0544 8.08972 10.067 8.12814 10.0681C8.16749 10.0724 8.20721 10.0643 8.24163 10.045C8.27605 10.0257 8.3034 9.99616 8.31979 9.96062L9.44713 7.62592L10.1987 8.51903C10.216 8.53991 10.2378 8.55672 10.2625 8.56826C10.2872 8.5798 10.3142 8.58577 10.3415 8.58574H10.9615C11.0111 8.58479 11.0583 8.56497 11.0933 8.53042C11.1284 8.49587 11.1485 8.44929 11.1494 8.40045C11.1494 8.3513 11.1296 8.30417 11.0944 8.26942C11.0591 8.23468 11.0114 8.21515 10.9615 8.21515H10.4204L9.5298 7.16639C9.50905 7.14298 9.48275 7.12498 9.45326 7.114C9.42376 7.10301 9.39197 7.09936 9.3607 7.10339C9.32962 7.1078 9.30007 7.11953 9.27456 7.1376C9.24904 7.15566 9.22832 7.17952 9.21415 7.20716L8.15069 9.38992L7.02335 6.11763C7.01225 6.08172 6.98991 6.05019 6.95954 6.02755C6.92917 6.00492 6.89231 5.99235 6.85424 5.99163C6.81591 5.98768 6.77735 5.99648 6.74467 6.01662C6.71198 6.03676 6.68707 6.0671 6.67387 6.10281L5.772 8.21515H4.94904C4.8992 8.21515 4.85141 8.23468 4.81618 8.26942C4.78094 8.30417 4.76115 8.3513 4.76115 8.40045C4.76115 8.44959 4.78094 8.49672 4.81618 8.53147C4.85141 8.56622 4.8992 8.58574 4.94904 8.58574H5.90352C5.9405 8.58508 5.9765 8.57389 6.00717 8.5535C6.03784 8.53312 6.06188 8.50442 6.07638 8.47086L6.82794 6.69945L7.95528 9.94209C7.96757 9.97801 7.99073 10.0093 8.02164 10.0319Z"
          fill="#F0BE46"/>
</svg>
